<svg width="151" height="43" viewBox="0 0 151 43" fill="none" xmlns="http://www.w3.org/2000/svg">
<g clip-path="url(#clip0_1_11)">
<path fill-rule="evenodd" clip-rule="evenodd" d="M17.1147 28.5288L17.1152 31.3926L17.1147 28.5288Z" fill="#95DD00"/>
<path fill-rule="evenodd" clip-rule="evenodd" d="M19.9717 25.6748L22.7998 25.6738H19.9531L19.9717 25.6748Z" fill="#95DD00"/>
<path d="M17.1147 28.5288L17.1152 31.3926C17.1134 32.1499 16.8117 32.8764 16.2764 33.4121C15.741 33.9478 15.0151 34.2496 14.2578 34.252H11.4004C10.643 34.2493 9.91714 33.947 9.38184 33.4111C8.84653 32.8753 8.54481 32.149 8.54297 31.3916V28.5342C8.54112 27.7768 8.23944 27.0494 7.7041 26.5137C7.23561 26.045 6.62136 25.7551 5.96777 25.6885C5.87456 25.698 5.78006 25.7028 5.68555 25.7031H2.85742C2.10016 25.7005 1.37415 25.398 0.838867 24.8623C0.303719 24.3267 0.00210818 23.6009 0 22.8438V19.9844C0.00237204 19.2273 0.304594 18.5013 0.839844 17.9658C1.37506 17.4306 2.10051 17.1286 2.85742 17.126H5.71484C6.47227 17.1233 7.19809 16.821 7.7334 16.2852C8.20185 15.8162 8.49144 15.2017 8.55762 14.5479C8.54821 14.4546 8.54317 14.3602 8.54297 14.2656V11.4082C8.54481 10.6508 8.84653 9.92454 9.38184 9.38867C9.91713 8.85289 10.643 8.55049 11.4004 8.54785H14.2666C15.0206 8.5427 15.7423 8.24161 16.2754 7.70801C16.7431 7.23972 17.0319 6.62636 17.0986 5.97363C17.0909 5.88896 17.0861 5.80348 17.0859 5.71777V2.86035C17.0875 2.10284 17.3894 1.37675 17.9248 0.84082C18.4602 0.304927 19.1859 0.00237707 19.9434 0H22.7998C23.5573 0.00237715 24.283 0.304895 24.8184 0.84082C25.3537 1.37674 25.6556 2.10285 25.6572 2.86035V5.68945L25.6719 5.97168C25.738 6.62547 26.0275 7.24011 26.4961 7.70898C27.0293 8.2424 27.751 8.54309 28.5049 8.54785H31.3721C32.1295 8.55051 32.8553 8.85282 33.3906 9.38867C33.9259 9.92453 34.2267 10.6508 34.2285 11.4082V14.2656C34.2304 15.023 34.5322 15.7493 35.0674 16.2852C35.6027 16.821 36.3285 17.1233 37.0859 17.126H39.9434C40.7004 17.1284 41.4256 17.4305 41.9609 17.9658C42.4964 18.5013 42.7984 19.2271 42.8008 19.9844V22.8438C42.7987 23.6012 42.4974 24.3276 41.9619 24.8633C41.4265 25.3989 40.7006 25.7007 39.9434 25.7031L36.8125 25.6885C36.7208 25.6882 36.903 25.6975 36.8125 25.6885C36.156 25.7537 35.5387 26.0442 35.0684 26.5146C34.5331 27.0501 34.2309 27.7761 34.2285 28.5332V31.3916C34.2267 32.1489 33.9258 32.8753 33.3906 33.4111C32.8553 33.947 32.1295 34.2493 31.3721 34.252H28.5146C27.7573 34.2542 27.0316 34.5561 26.4961 35.0918C25.9605 35.6275 25.6591 36.3538 25.6572 37.1113V39.9414C25.6555 40.6988 25.3536 41.4251 24.8184 41.9609C24.283 42.4966 23.5572 42.7984 22.7998 42.8008H19.9434C19.1859 42.7981 18.4601 42.4958 17.9248 41.96C17.3896 41.4242 17.0879 40.6987 17.0859 39.9414V37.082C17.0875 36.3245 17.3894 35.5984 17.9248 35.0625C18.4601 34.5267 19.1859 34.2241 19.9434 34.2217H22.7998C22.8944 34.222 22.9887 34.2268 23.082 34.2363C23.7353 34.1695 24.349 33.8795 24.8174 33.4111C25.3526 32.8757 25.6549 32.1497 25.6572 31.3926V28.5342C25.6588 27.7765 25.9605 27.0496 26.4961 26.5137C27.0315 25.9781 27.7573 25.676 28.5146 25.6738H31.3721C32.1291 25.6712 32.8544 25.3694 33.3896 24.834C33.9248 24.2984 34.2263 23.5725 34.2285 22.8154V19.9854C34.2269 19.2279 33.9259 18.5017 33.3906 17.9658C32.8553 17.4299 32.1296 17.1284 31.3721 17.126H28.5146C27.7572 17.1238 27.0316 16.8218 26.4961 16.2861C25.9605 15.7502 25.6588 15.0233 25.6572 14.2656V11.4082L25.6426 11.126C25.5764 10.4722 25.2868 9.85762 24.8184 9.38867C24.3499 8.91976 23.7357 8.63019 23.082 8.56348C22.9887 8.573 23.1766 8.56318 23.082 8.56348L19.6816 8.56445C19.594 8.56418 19.7682 8.57265 19.6816 8.56445C19.031 8.63254 18.4198 8.92188 17.9531 9.38867C17.4201 9.92192 17.1189 10.6438 17.1143 11.3975L17.1152 14.2656C17.1137 15.0231 16.8117 15.7492 16.2764 16.2852C15.741 16.8211 15.0153 17.1236 14.2578 17.126H11.4287C10.6716 17.1287 9.94634 17.4312 9.41113 17.9668C8.87593 18.5024 8.54508 19.2282 8.54297 19.9854V22.8154L8.55762 23.0977C8.62396 23.7512 8.91356 24.3652 9.38184 24.834C9.91493 25.3676 10.6366 25.6687 11.3906 25.6738H14.2568C15.0141 25.6712 15.7401 25.3696 16.2754 24.834C16.746 24.3631 17.0349 23.7449 17.0996 23.0879C17.0907 22.9977 17.0862 22.9068 17.0859 22.8154V19.9561C17.0878 19.1988 17.3896 18.4732 17.9248 17.9375C18.4601 17.4018 19.186 17.0991 19.9434 17.0967H22.7998C23.5573 17.0991 24.283 17.4017 24.8184 17.9375C25.3537 18.4734 25.6556 19.1995 25.6572 19.957V22.8154C25.6553 23.5726 25.3535 24.2982 24.8184 24.834C24.2831 25.3699 23.5572 25.6712 22.7998 25.6738H19.9531L19.9717 25.6748C19.2145 25.677 18.4886 25.9792 17.9531 26.5146C17.42 27.0479 17.1194 27.775 17.1147 28.5288Z" fill="#95DD00"/>
<path d="M63.5361 14.0332C64.969 14.0332 66.25 14.3738 67.3779 15.0557C68.5059 15.7137 69.3875 16.6773 70.0215 17.9463C70.6793 19.1912 71.0078 20.6962 71.0078 22.458C71.0078 24.1958 70.6439 25.6765 69.915 26.8975C69.2096 28.0983 68.168 29.0666 66.9189 29.6826C65.651 30.3176 64.1938 30.6348 62.5488 30.6348C61.6221 30.6326 60.703 30.4652 59.835 30.1406C59.0322 29.8158 58.3518 29.3695 57.79 28.8037V37.6143H52.8916V14.4561H57.1211L57.5547 16.2988C58.3334 15.6546 59.1948 15.1173 60.1172 14.7031C61.1042 14.2571 62.2431 14.0332 63.5361 14.0332ZM97.5938 37.6143H92.8359L96.5293 29.4004L89.417 14.8096H94.9512L99.0098 23.8857L103.093 14.8086H107.534L97.5938 37.6143ZM78.7285 14.0342C80.2563 14.0342 81.4077 14.2916 82.1836 14.8086C82.945 15.279 83.5774 15.8057 84.083 16.3828L84.4033 14.8086H88.9854V30.2119H84.0508V28.3008C84.0391 28.3147 84.0268 28.3291 84.0146 28.3438C83.7796 28.6017 83.4279 28.919 82.958 29.2949C82.5111 29.6478 81.9484 29.953 81.2666 30.2119C80.6086 30.4939 79.8222 30.6347 78.9053 30.6348C77.4713 30.6348 76.1672 30.353 74.9922 29.7891C73.8412 29.2011 72.9242 28.3084 72.2422 27.1094C71.5624 25.9115 71.2208 24.3839 71.2207 22.5283C71.2207 20.7893 71.5733 19.2846 72.2783 18.0156C72.9833 16.7478 73.9116 15.7718 75.0625 15.0908C76.2144 14.3859 77.4366 14.0342 78.7285 14.0342ZM112.863 15.8662C113.474 15.3492 114.285 14.9145 115.295 14.5615C116.305 14.2095 117.457 14.0342 118.749 14.0342C120.089 14.0342 121.311 14.3505 122.415 14.9844C123.519 15.6194 124.402 16.5476 125.06 17.7695C125.741 18.9675 126.081 20.4368 126.081 22.1758C126.081 23.9137 125.705 25.4176 124.953 26.6865C124.224 27.9565 123.249 28.9313 122.027 29.6133C120.822 30.2902 119.462 30.6419 118.08 30.6348C116.787 30.6348 115.694 30.423 114.802 30C114.106 29.6451 113.467 29.1916 112.898 28.6582V30.2119H107.964V2.40234H112.863V15.8662ZM132.427 30.2119H127.492V14.8086H132.427V30.2119ZM145.756 14.0693C147.213 14.0693 148.423 14.5031 149.387 15.373C150.374 16.219 150.879 17.3227 150.902 18.6855V30.2119H145.968V20.5186C145.944 19.8377 145.756 19.2964 145.404 18.8975C145.074 18.4746 144.51 18.2627 143.712 18.2627C142.959 18.2627 142.302 18.51 141.738 19.0029C141.174 19.4969 140.74 20.1658 140.435 21.0127C140.129 21.8576 139.977 22.8326 139.977 23.9375V30.2119H135.041V14.8086H139.519L139.863 17.2627C140.405 16.3186 141.185 15.5322 142.126 14.9844C143.113 14.3745 144.323 14.0694 145.756 14.0693ZM61.9141 18.1924C61.2562 18.1924 60.6693 18.2867 60.1523 18.4746C59.6594 18.6386 59.2125 18.8981 58.8125 19.25C58.4115 19.6114 58.0773 20.0407 57.8262 20.5186V24.29C58.0141 24.7839 58.2839 25.2178 58.6357 25.5947C58.9887 25.9707 59.4123 26.2646 59.9062 26.4746C60.4374 26.6653 60.9982 26.7614 61.5625 26.7578C62.3613 26.7578 63.0892 26.5805 63.7471 26.2285C64.4119 25.8915 64.9728 25.3803 65.3691 24.749C65.7932 24.0868 66.0134 23.3146 66.0029 22.5283C66.0029 21.6583 65.8155 20.9065 65.4395 20.2715C65.1052 19.6325 64.59 19.1059 63.959 18.7568C63.3442 18.3797 62.6352 18.1837 61.9141 18.1924ZM80.1377 18.0527C79.4398 18.0508 78.7556 18.2468 78.1641 18.6172C77.5706 18.9759 77.0835 19.4865 76.7539 20.0967C76.4019 20.7307 76.2266 21.4602 76.2266 22.2822C76.2266 23.1051 76.4141 23.8451 76.79 24.502C77.1428 25.1371 77.6528 25.6712 78.2705 26.0537C78.8875 26.4248 79.5945 26.6204 80.3145 26.6182L80.3154 26.6172C80.9023 26.6172 81.4305 26.5351 81.9004 26.3701C82.3703 26.1821 82.7819 25.9226 83.1338 25.5947C83.4867 25.2418 83.7918 24.8069 84.0508 24.29V20.5195C83.8764 20.0239 83.5866 19.577 83.2051 19.2158C82.8266 18.8382 82.3689 18.5495 81.8652 18.3701C81.3158 18.1526 80.7285 18.0445 80.1377 18.0527ZM116.987 17.9111C116.352 17.9111 115.753 18.0156 115.189 18.2275C114.649 18.4155 114.179 18.6982 113.779 19.0742C113.395 19.4399 113.094 19.8846 112.898 20.3779V24.1484C113.18 24.6654 113.509 25.1011 113.885 25.4541C114.285 25.782 114.743 26.0405 115.26 26.2285C115.819 26.3994 116.402 26.4818 116.987 26.4746C117.697 26.4802 118.393 26.2854 118.996 25.9121C119.629 25.5376 120.152 25.0025 120.512 24.3613C120.888 23.7033 121.076 22.9626 121.076 22.1406C121.076 21.3177 120.888 20.589 120.512 19.9551C120.149 19.3341 119.626 18.8223 118.996 18.4746C118.393 18.1009 117.697 17.9059 116.987 17.9111ZM130.101 6.84277C130.757 6.84288 131.358 7.07796 131.898 7.54785C132.462 8.0178 132.744 8.61785 132.744 9.3457C132.744 10.0736 132.462 10.6726 131.898 11.1426C131.358 11.5895 130.757 11.8124 130.101 11.8125C129.443 11.8125 128.819 11.5895 128.232 11.1426C127.668 10.6726 127.386 10.0737 127.386 9.3457C127.386 8.61677 127.668 8.01782 128.232 7.54785C128.819 7.07795 129.443 6.84277 130.101 6.84277Z" fill="white"/>
<path fill-rule="evenodd" clip-rule="evenodd" d="M19.9717 25.6748L22.7998 25.6738H19.9531L19.9717 25.6748Z" fill="#7EBE00"/>
</g>
<defs>
<clipPath id="clip0_1_11">
<rect width="151" height="43" fill="white"/>
</clipPath>
</defs>
</svg>
